<?xml version="1.0" encoding="UTF-8" standalone="no"?>
<svg
   xmlns:dc="http://purl.org/dc/elements/1.1/"
   xmlns:cc="http://creativecommons.org/ns#"
   xmlns:rdf="http://www.w3.org/1999/02/22-rdf-syntax-ns#"
   xmlns:svg="http://www.w3.org/2000/svg"
   xmlns="http://www.w3.org/2000/svg"
   xmlns:sodipodi="http://sodipodi.sourceforge.net/DTD/sodipodi-0.dtd"
   xmlns:inkscape="http://www.inkscape.org/namespaces/inkscape"
   version="1.1"
   id="svg2"
   xml:space="preserve"
   width="2560"
   height="1440"
   viewBox="0 0 2560 1440"
   sodipodi:docname="ARC.ai"><metadata
     id="metadata8"><rdf:RDF><cc:Work
         rdf:about=""><dc:format>image/svg+xml</dc:format><dc:type
           rdf:resource="http://purl.org/dc/dcmitype/StillImage" /></cc:Work></rdf:RDF></metadata><defs
     id="defs6"><linearGradient
       x1="0"
       y1="0"
       x2="1"
       y2="0"
       gradientUnits="userSpaceOnUse"
       gradientTransform="matrix(0,-432,-432,0,296.5,757)"
       spreadMethod="pad"
       id="linearGradient30"><stop
         style="stop-opacity:1;stop-color:#00c8ff"
         offset="0"
         id="stop24" /><stop
         style="stop-opacity:1;stop-color:#5924b0"
         offset="0.772576"
         id="stop26" /><stop
         style="stop-opacity:1;stop-color:#5924b0"
         offset="1"
         id="stop28" /></linearGradient><radialGradient
       fx="0"
       fy="0"
       cx="0"
       cy="0"
       r="1"
       gradientUnits="userSpaceOnUse"
       gradientTransform="matrix(417.34198,0,0,-173.05371,342.31265,499.94629)"
       spreadMethod="pad"
       id="radialGradient58"><stop
         style="stop-opacity:1;stop-color:#c9f3ff"
         offset="0"
         id="stop46" /><stop
         style="stop-opacity:1;stop-color:#c9f3ff"
         offset="0.1257063"
         id="stop48" /><stop
         style="stop-opacity:1;stop-color:#228be2"
         offset="0.481593"
         id="stop50" /><stop
         style="stop-opacity:1;stop-color:#5924b0"
         offset="0.9183605"
         id="stop52" /><stop
         style="stop-opacity:1;stop-color:#5924b0"
         offset="0.928345"
         id="stop54" /><stop
         style="stop-opacity:1;stop-color:#5924b0"
         offset="1"
         id="stop56" /></radialGradient><clipPath
       clipPathUnits="userSpaceOnUse"
       id="clipPath68"><path
         d="M 0,1080 H 1920 V 0 H 0 Z"
         id="path66" /></clipPath></defs><sodipodi:namedview
     pagecolor="#ffffff"
     bordercolor="#666666"
     borderopacity="1"
     objecttolerance="10"
     gridtolerance="10"
     guidetolerance="10"
     inkscape:pageopacity="0"
     inkscape:pageshadow="2"
     inkscape:window-width="640"
     inkscape:window-height="480"
     id="namedview4" /><g
     id="g10"
     inkscape:groupmode="layer"
     inkscape:label="ARC"
     transform="matrix(1.3333333,0,0,-1.3333333,0,1440)"><g
       id="g12"><g
         id="g14"><g
           id="g20"><g
             id="g22"><path
               d="m 297,757 0.328,-0.612 L 92,387.365 154.465,325 341.491,673.953 394.159,575.644 C 431.399,571.198 467.221,562.128 501,549 v 0 L 385.669,756.383 386,757 Z"
               style="fill:url(#linearGradient30);stroke:none"
               id="path32" /></g></g></g></g><g
       id="g34"><g
         id="g36"><g
           id="g42"><g
             id="g44"><path
               d="m 234.057,474.223 c -0.071,0 -0.177,-0.036 -0.247,-0.071 v 0 c -1.868,-0.565 -3.738,-1.201 -5.606,-1.837 v 0 c -38.22,-12.961 -73.479,-32.281 -104.576,-56.757 v 0 c -3.42,-2.685 -6.77,-5.44 -10.085,-8.3 v 0 c -7.439,-6.287 -14.632,-12.892 -21.542,-19.814 v 0 l 62.336,-62.445 c 47.846,47.929 113.956,77.597 186.975,77.597 v 0 c 73.021,0 139.131,-29.668 186.972,-77.597 v 0 l 62.34,62.445 c -6.875,6.922 -14.068,13.527 -21.542,19.814 v 0 c -3.314,2.86 -6.664,5.615 -10.084,8.3 v 0 c -31.063,24.476 -66.356,43.796 -104.576,56.757 v 0 c -1.87,0.636 -3.738,1.272 -5.606,1.837 v 0 c -0.071,0.035 -0.18,0.071 -0.248,0.071 v 0 c -33.812,10.843 -69.85,16.67 -107.256,16.67 v 0 c -37.409,0 -73.442,-5.827 -107.255,-16.67"
               style="fill:url(#radialGradient58);stroke:none"
               id="path60" /></g></g></g></g><g
       id="g62"><g
         id="g64"
         clip-path="url(#clipPath68)"><g
           id="g70"
           transform="translate(1322.9639,675)"><path
             d="m 0,0 c 25.798,0 50.033,-6.081 71.036,-16.73 v -45.649 c -15.846,14.825 -36.899,23.856 -59.987,23.856 -49.277,0 -89.251,-41.186 -89.251,-91.977 0,-50.791 39.974,-91.977 89.251,-91.977 23.088,0 44.141,9.032 59.987,23.856 V -244.27 C 50.033,-254.919 25.798,-261 0,-261 c -80.078,0 -144.964,58.438 -144.964,130.5 C -144.964,-58.438 -80.078,0 0,0 m -508.88,0 94.916,-261 h -65.197 l -18.983,52.2 h -98.074 l -18.591,-52.2 h -52.155 L -574.043,-0.091 -574.077,0 Z m 122.916,0 131.777,-0.313 c 42.878,0 78.563,-36.929 78.579,-79.579 0.01,-32.388 -19.041,-58.498 -46.293,-70.452 L -157.964,-261 h -65.3 l -59.854,103.591 h -37.545 V -261 h -65.301 z m -161.602,-72.232 -34.744,-97.274 h 70.225 z m 268.12,32.745 h -0.416 l -40.684,-0.382 v -77.629 h 39.604 c 20.063,0 40.811,13.624 41.199,38.279 0.416,26.18 -16.82,39.483 -39.703,39.732"
             style="fill:#270067;fill-opacity:1;fill-rule:evenodd;stroke:none"
             id="path72" /></g><g
           id="g74"
           transform="translate(1466.0098,609)"><path
             d="M 0,0 6.335,18.303 H 29.393 L 35.559,0 H 42.99 L 21.791,58 H 14.105 L -7.01,0 Z m 27.99,24 h -20 l 3.29,9.403 c 2.338,6.559 4.416,12.722 6.494,19.597 h 0.346 c 2.164,-6.795 4.156,-13.038 6.58,-19.597 z m 30.938,-42 v 14.75 l -0.171,7.494 c 4.368,-3.155 8.736,-4.969 13.019,-4.969 10.707,0 20.214,8.44 20.214,23.033 C 91.99,35.402 85.566,44 73.489,44 68.094,44 62.868,41.082 58.585,37.926 h -0.257 l -0.684,4.97 H 51.99 V -18 Z M 70.91,5 C 67.714,5 63.396,6.189 58.99,9.676 V 32.818 C 63.741,36.86 67.974,39 72.033,39 81.362,39 84.99,32.263 84.99,22.594 84.99,11.737 79.03,5 70.91,5 m 40.018,-23 v 14.75 l -0.171,7.494 c 4.368,-3.155 8.736,-4.969 13.019,-4.969 10.707,0 20.214,8.44 20.214,23.033 0,13.094 -6.424,21.692 -18.501,21.692 -5.395,0 -10.621,-2.918 -14.904,-6.074 h -0.257 l -0.684,4.97 H 103.99 V -18 Z M 122.91,5 c -3.196,0 -7.514,1.189 -11.92,4.676 V 32.818 C 115.741,36.86 119.974,39 124.033,39 133.362,39 136.99,32.263 136.99,22.594 136.99,11.737 131.03,5 122.91,5 m 40.788,-6 c 2.015,0 3.154,0.237 4.292,0.554 l -1.051,4.984 c -0.876,-0.159 -1.226,-0.159 -1.664,-0.159 -1.227,0 -2.19,0.871 -2.19,3.007 V 63 H 155.99 V 7.86 c 0,-5.695 2.278,-8.86 7.708,-8.86 m 20.292,53 c 2.712,0 5,1.865 5,4.459 0,2.838 -2.288,4.541 -5,4.541 -2.881,0 -5,-1.703 -5,-4.541 0,-2.594 2.119,-4.459 5,-4.459 m 3,-9 h -7 V 0 h 7 z m 33.991,-44 c 6.443,0 11.168,1.984 15.206,4.365 l -2.578,4.286 c -3.436,-2.143 -7.215,-3.492 -11.769,-3.492 -9.277,0 -15.462,6.349 -15.892,15.873 h 31.698 c 0.258,1.031 0.344,2.46 0.344,3.888 0,12.382 -6.7,20.08 -18.297,20.08 C 209.041,44 198.99,35.349 198.99,21.381 198.99,7.333 208.783,-1 220.981,-1 m 11.009,26 h -26 c 0.947,8.859 7.061,14 13.947,14 7.577,0 12.053,-4.825 12.053,-14 m 33.101,-26 c 5.653,0 10.621,2.769 14.305,6.17 h 0.17 l 0.685,-5.142 h 5.739 V 63 h -6.937 V 46.229 l 0.343,-7.437 c -4.198,3.165 -7.795,5.063 -13.278,5.063 -10.621,0 -20.128,-8.702 -20.128,-22.546 C 245.99,7.069 253.442,-1 265.091,-1 m 2.288,6 c -8.552,0 -13.389,6.419 -13.389,16.96 0,9.986 6.133,17.04 14.08,17.04 4.06,0 7.687,-1.347 11.92,-4.755 V 11.103 C 275.844,7.061 271.87,5 267.379,5 M 8.019,-98 v 25.038 h 11.6 L 35.115,-98 h 7.875 l -16.004,25.672 c 8.722,1.822 14.395,7.131 14.395,16.244 C 41.381,-44.2 32.575,-40 19.958,-40 H 0.99 v -58 z m 11.672,30 H 8.99 v 22 H 19.691 C 29.557,-46 34.99,-48.818 34.99,-56.647 34.99,-64.32 29.557,-68 19.691,-68 m 52.29,-31 c 6.443,0 11.168,1.984 15.206,4.365 l -2.578,4.285 c -3.436,-2.142 -7.215,-3.491 -11.769,-3.491 -9.277,0 -15.462,6.349 -15.892,15.872 h 31.698 c 0.258,1.032 0.344,2.461 0.344,3.89 C 88.99,-61.698 82.29,-54 70.693,-54 60.041,-54 49.99,-62.651 49.99,-76.619 49.99,-90.667 59.783,-99 71.981,-99 m 11.009,25 h -26 c 0.948,8.859 7.061,14 13.948,14 7.576,0 12.052,-4.825 12.052,-14 m 29.345,-25 c 10.787,0 16.655,5.714 16.655,12.54 0,8.174 -7.594,10.635 -14.411,13.095 -5.35,1.746 -10.528,3.413 -10.528,7.698 0,3.492 2.848,6.508 9.061,6.508 4.228,0 7.594,-1.666 10.787,-3.809 l 3.366,4.206 c -3.538,2.619 -8.63,4.762 -14.153,4.762 -10.009,0 -15.792,-5.317 -15.792,-11.984 0,-7.302 7.421,-10.159 14.067,-12.381 5.263,-1.746 10.873,-3.81 10.873,-8.412 0,-3.969 -3.194,-7.144 -9.666,-7.144 -5.867,0 -10.01,2.064 -14.066,5.159 L 94.99,-93.127 C 99.392,-96.46 105.691,-99 112.335,-99 m 45.646,0 c 6.443,0 11.168,1.984 15.206,4.365 l -2.578,4.285 c -3.436,-2.142 -7.215,-3.491 -11.769,-3.491 -9.277,0 -15.462,6.349 -15.892,15.872 h 31.698 c 0.258,1.032 0.344,2.461 0.344,3.89 0,12.381 -6.7,20.079 -18.297,20.079 -10.652,0 -20.703,-8.651 -20.703,-22.619 0,-14.048 9.793,-22.381 21.991,-22.381 m 11.009,25 h -26 c 0.947,8.859 7.061,14 13.947,14 7.577,0 12.053,-4.825 12.053,-14 m 28.209,-25 c 5.721,0 10.938,2.777 15.313,6.27 h 0.253 l 0.589,-5.239 h 5.636 v 26.588 c 0,10.318 -4.375,17.381 -15.396,17.381 -7.32,0 -13.715,-3.175 -17.668,-5.635 l 2.776,-4.524 c 3.449,2.302 8.329,4.762 13.798,4.762 7.824,0 9.76,-5.714 9.676,-11.508 -19.52,-2.064 -28.186,-6.666 -28.186,-16.032 0,-7.777 5.721,-12.063 13.209,-12.063 m 2.385,5 c -4.727,0 -8.594,2.009 -8.594,7.03 0,5.717 5.586,9.271 22,10.97 V -88.206 C 208.264,-91.991 204.311,-94 199.584,-94 m 42.181,-4 v 27.957 c 3.093,7.465 7.776,10.166 11.622,10.166 1.757,0 2.76,-0.239 4.265,-0.715 l 1.338,5.639 c -1.505,0.715 -2.843,0.953 -4.766,0.953 -5.102,0 -9.701,-3.574 -12.794,-8.975 h -0.252 l -0.668,7.863 h -5.52 V -98 Z m 42.486,-1 c 5.591,0 10.673,2.063 14.739,5.477 l -3.049,4.285 c -2.879,-2.381 -6.777,-4.366 -11.097,-4.366 -8.809,0 -14.739,6.827 -14.739,16.985 0,10.238 6.353,17.143 14.91,17.143 3.81,0 6.775,-1.587 9.486,-3.968 l 3.643,4.285 c -3.22,2.778 -7.37,5.159 -13.384,5.159 -11.605,0 -21.77,-8.254 -21.77,-22.619 0,-14.127 9.234,-22.381 21.261,-22.381 m 32.616,1 v 31.263 c 4.755,4.59 8.237,6.965 13.076,6.965 6.369,0 9.085,-3.641 9.085,-11.873 V -98 h 6.962 v 27.147 c 0,10.922 -4.415,16.7 -14.009,16.7 -6.283,0 -10.953,-3.325 -15.368,-7.282 l 0.254,8.944 V -35 H 309.99 V -98 Z M 24.923,-198 c 8.123,0 14.193,3.008 19.067,8.312 l -3.932,4.116 c -4.105,-4.275 -8.722,-6.65 -14.792,-6.65 -12.313,0 -20.008,9.42 -20.008,24.38 0,14.882 8.037,24.064 20.264,24.064 5.472,0 9.748,-2.217 12.997,-5.541 l 3.932,4.274 c -3.591,3.642 -9.405,7.045 -17.014,7.045 -15.819,0 -27.447,-11.398 -27.447,-30 0,-18.76 11.457,-30 26.933,-30 m 48.058,0 c 6.443,0 11.168,1.984 15.206,4.365 l -2.578,4.285 c -3.436,-2.142 -7.215,-3.491 -11.769,-3.491 -9.277,0 -15.462,6.349 -15.892,15.872 h 31.698 c 0.258,1.032 0.344,2.461 0.344,3.89 0,12.381 -6.7,20.079 -18.297,20.079 -10.652,0 -20.703,-8.65 -20.703,-22.619 0,-14.048 9.793,-22.381 21.991,-22.381 m 11.009,26 h -26 c 0.948,8.858 7.061,14 13.948,14 7.576,0 12.052,-4.825 12.052,-14 m 23.877,-25 v 31.372 c 4.755,4.607 8.237,6.989 13.076,6.989 6.369,0 9.085,-3.653 9.085,-11.914 V -197 h 6.962 v 27.242 c 0,10.96 -4.415,16.758 -14.009,16.758 -6.283,0 -11.038,-3.336 -15.453,-7.387 h -0.255 l -0.679,6.275 H 100.99 V -197 Z m 58.904,-1 c 2.568,0 5.65,0.793 8.219,1.586 l -1.37,4.839 c -1.541,-0.555 -3.682,-1.111 -5.394,-1.111 -5.566,0 -7.279,3.173 -7.279,8.409 v 24.827 h 12.759 v 5.314 H 160.947 V -142 h -5.908 l -0.77,-12.136 -7.279,-0.396 v -4.918 h 7.022 v -24.59 c 0,-8.407 3.082,-13.96 12.759,-13.96 m 36.21,0 c 6.443,0 11.168,1.984 15.206,4.365 l -2.578,4.285 c -3.436,-2.142 -7.215,-3.491 -11.769,-3.491 -9.277,0 -15.462,6.349 -15.892,15.872 h 31.698 c 0.258,1.032 0.344,2.461 0.344,3.89 0,12.381 -6.7,20.079 -18.297,20.079 -10.652,0 -20.703,-8.65 -20.703,-22.619 0,-14.048 9.793,-22.381 21.991,-22.381 m 10.009,26 h -26 c 0.947,8.858 7.061,14 13.947,14 7.577,0 12.053,-4.825 12.053,-14 m 24.775,-25 v 27.957 c 3.093,7.466 7.776,10.166 11.622,10.166 1.757,0 2.76,-0.238 4.265,-0.715 l 1.338,5.639 c -1.505,0.715 -2.843,0.953 -4.766,0.953 -5.102,0 -9.701,-3.574 -12.794,-8.975 h -0.252 l -0.668,7.863 h -5.52 V -197 Z"
             style="fill:#270067;fill-opacity:1;fill-rule:nonzero;stroke:none"
             id="path76" /></g></g></g></g></svg>
